<svg xmlns="http://www.w3.org/2000/svg" viewBox="0 0 24 24"><defs><style>.cls-1{fill-opacity:0;}.cls-2{fill:none;stroke:#000;stroke-width:2px;}</style></defs><title>ic barcode nor</title><g id="레이어_2" data-name="레이어 2"><g id="레이어_1-2" data-name="레이어 1"><g id="ic_barcode_nor" data-name="ic barcode nor"><g id="smartphone"><rect id="사각형_25" data-name="사각형 25" class="cls-1" width="24" height="24"/><path id="패스_24" data-name="패스 24" class="cls-2" d="M2,7.13v9.74A3,3,0,0,0,5,19.8H19a3,3,0,0,0,3-2.93V7.13A3,3,0,0,0,19,4.2H5A3,3,0,0,0,2,7.13Z"/><path id="패스_34" data-name="패스 34" d="M18,9.5v5a1,1,0,0,1-2,0v-5a1,1,0,0,1,2,0Z"/><path id="패스_35" data-name="패스 35" d="M15,9.5v5a1,1,0,0,1-2,0v-5a1,1,0,0,1,2,0Z"/><path id="패스_36" data-name="패스 36" d="M11,9.5v5a1,1,0,0,1-2,0v-5a1,1,0,0,1,2,0Z"/><path id="패스_37" data-name="패스 37" d="M8,9.5v5a1,1,0,0,1-2,0v-5a1,1,0,0,1,2,0Z"/></g></g></g></g></svg>