<svg xmlns="http://www.w3.org/2000/svg" viewBox="0 0 24 24"><defs><style>.cls-1{fill-opacity:0;}</style></defs><title>ic barcode active</title><g id="레이어_2" data-name="레이어 2"><g id="레이어_1-2" data-name="레이어 1"><g id="ic_barcode_active" data-name="ic barcode active"><g id="smartphone"><rect id="사각형_25" data-name="사각형 25" class="cls-1" width="24" height="24"/><path id="빼기_1" data-name="빼기 1" d="M23,6.49v11a3.3,3.3,0,0,1-3.3,3.3H4.29A3.3,3.3,0,0,1,1,17.51v-11a3.3,3.3,0,0,1,3.3-3.3H19.71A3.3,3.3,0,0,1,23,6.49Zm-7,8a1,1,0,0,0,2,0v-5a1,1,0,0,0-2,0h0Zm-3,0a1,1,0,0,0,2,0v-5a1,1,0,0,0-2,0Zm-4,0a1,1,0,0,0,2,0v-5a1,1,0,0,0-2,0H9Zm-3,0a1,1,0,0,0,2,0v-5a1,1,0,0,0-2,0H6Z"/></g></g></g></g></svg>